<svg width="136" height="23" viewBox="0 0 136 23" fill="none" xmlns="http://www.w3.org/2000/svg">
<path d="M20.5731 0.368584L25.4626 2.0062C25.7288 2.10246 25.9603 2.28535 26.1242 2.52903C26.2881 2.77271 26.3765 3.06507 26.3765 3.36478V19.8233C26.3755 20.1357 26.2802 20.4395 26.1023 20.6884C25.9255 20.9372 25.6762 21.1175 25.3941 21.2019L20.5045 22.5604C20.3049 22.62 20.0953 22.6295 19.8916 22.5883C19.688 22.547 19.4952 22.4561 19.3303 22.3226C19.1644 22.1892 19.0303 22.0168 18.9379 21.8189C18.8455 21.621 18.7969 21.4029 18.7969 21.1819V1.72388C18.7969 1.49619 18.8485 1.27188 18.9459 1.06953C19.0432 0.867071 19.1853 0.692433 19.3591 0.559913C19.532 0.427493 19.7327 0.340967 19.9443 0.307689C20.1558 0.27441 20.3714 0.295271 20.5731 0.368584Z" fill="#FEC654"/>
<path d="M11.0877 2.57399L15.9802 4.21161C16.2464 4.30797 16.4779 4.49075 16.6418 4.73444C16.8057 4.97822 16.8931 5.27047 16.8931 5.57018V18.0469C16.8931 18.3593 16.7967 18.6631 16.6199 18.9119C16.4431 19.1608 16.1938 19.3411 15.9116 19.4254L11.0221 20.784C10.8224 20.8436 10.6128 20.8531 10.4092 20.8119C10.2045 20.7706 10.0128 20.6797 9.84791 20.5462C9.68201 20.4128 9.54791 20.2403 9.45553 20.0424C9.36314 19.8445 9.31447 19.6266 9.31447 19.4055V3.93256C9.31347 3.70498 9.36413 3.48057 9.46149 3.27791C9.55884 3.07526 9.69989 2.90022 9.87374 2.7674C10.0466 2.63449 10.2473 2.54766 10.4589 2.51409C10.6695 2.48041 10.885 2.50097 11.0877 2.57399Z" fill="#E9655F"/>
<path d="M2.13072 3.65692L7.02023 5.29464C7.28646 5.3909 7.51792 5.57378 7.68183 5.81747C7.84574 6.06115 7.93315 6.35341 7.93315 6.65321V16.6418C7.93315 16.9543 7.8368 17.2581 7.65997 17.5069C7.48216 17.7557 7.23381 17.936 6.95168 18.0204L2.06217 19.379C1.8625 19.4386 1.65188 19.4481 1.44824 19.4069C1.24459 19.3656 1.05288 19.2747 0.88698 19.1412C0.722075 19.0077 0.587954 18.8353 0.495568 18.6374C0.403181 18.4395 0.354507 18.2216 0.354507 18.0004V5.01559C0.353513 4.78771 0.404179 4.5631 0.502525 4.36025C0.599878 4.15749 0.74095 3.98236 0.914795 3.84954C1.08864 3.71672 1.2893 3.6299 1.5009 3.59642C1.71249 3.56294 1.92806 3.58371 2.13072 3.65692Z" fill="#58C5C6"/>
<path d="M40.2254 8.75305C40.2254 10.0817 39.8013 11.1015 38.9539 11.8123C38.1065 12.521 36.9055 12.8754 35.3508 12.8754H33.3571V18.5589H32.4561V4.80011H35.6161C38.6886 4.80011 40.2254 6.11776 40.2254 8.75305ZM35.1303 12.0483C36.5826 12.0483 37.6356 11.7925 38.2804 11.2809C38.9261 10.7694 39.2529 9.93887 39.2529 8.79288C39.2529 7.73322 38.9469 6.94705 38.334 6.43435C37.7231 5.92285 36.7724 5.66705 35.4919 5.66705H33.3541V12.0483H35.1303Z" fill="white"/>
<path d="M50.4598 13.4295C50.4598 15.0971 50.0803 16.4004 49.3223 17.3394C48.5644 18.2783 47.5153 18.7478 46.1782 18.7478C45.3934 18.7645 44.6206 18.5396 43.953 18.1C43.2964 17.6509 42.7828 17.001 42.4788 16.2355C42.1232 15.3505 41.9483 14.3946 41.9672 13.4319C41.9672 11.7644 42.3467 10.4644 43.1046 9.53213C43.4951 9.06523 43.9788 8.69727 44.5192 8.45528C45.0597 8.21329 45.6448 8.10342 46.2309 8.13362C47.5491 8.13362 48.5832 8.60538 49.3343 9.54871C50.0853 10.4921 50.4608 11.7858 50.4598 13.4295ZM42.8841 13.4295C42.8841 14.8347 43.1732 15.9309 43.7533 16.7182C44.0613 17.0898 44.4398 17.3875 44.863 17.5914C45.2871 17.7953 45.7471 17.9007 46.212 17.9007C46.6769 17.9007 47.1369 17.7953 47.561 17.5914C47.9852 17.3875 48.3627 17.0898 48.6707 16.7182C49.2508 15.9309 49.5399 14.8347 49.5399 13.4295C49.5399 12.0178 49.2478 10.9227 48.6617 10.1444C48.3647 9.75703 47.9872 9.44967 47.558 9.24712C47.1289 9.04457 46.662 8.95248 46.1931 8.9784C45.7282 8.95128 45.2633 9.04258 44.8371 9.24473C44.411 9.44689 44.0364 9.75405 43.7434 10.141C43.1702 10.9149 42.8841 12.0112 42.8841 13.4295Z" fill="white"/>
<path d="M56.605 8.13063C57.0431 8.13331 57.4802 8.17781 57.9114 8.26344L57.7425 9.15701C57.3362 9.04992 56.9189 8.99637 56.4997 8.99757C56.1044 8.9927 55.714 9.09134 55.3633 9.28476C55.0116 9.47827 54.7106 9.7606 54.4861 10.1071C53.9407 10.9232 53.6646 11.9092 53.7013 12.9107V18.5578H52.8281V8.3299H53.5702L53.6576 10.1736H53.7192C54.0123 9.54334 54.4464 8.99935 54.9818 8.58898C55.4696 8.27159 56.0338 8.11235 56.605 8.13063Z" fill="white"/>
<path d="M62.1094 17.9176C62.5961 17.9245 63.0819 17.8744 63.5577 17.7681V18.5222C63.0839 18.6801 62.5902 18.7563 62.0935 18.7481C61.2461 18.7481 60.6203 18.5067 60.217 18.0239C59.8146 17.5411 59.613 16.7815 59.613 15.7451V9.13812H58.1914V8.59334L59.613 8.16816L60.055 5.85284H60.507V8.3276H63.3243V9.13812H60.507V15.6123C60.4653 16.2215 60.6014 16.8296 60.8964 17.3529C61.0385 17.5471 61.2242 17.7006 61.4358 17.7993C61.6474 17.8978 61.8789 17.9385 62.1094 17.9176Z" fill="white"/>
<path d="M71.1687 18.5586L70.9472 16.9409H70.8757C70.4823 17.5171 69.9747 17.9946 69.3896 18.3394C68.8263 18.6244 68.2084 18.7643 67.5846 18.7479C66.7869 18.8008 66.0001 18.5249 65.3881 17.9774C65.1209 17.7022 64.9123 17.369 64.7772 17.0005C64.6421 16.6319 64.5825 16.2366 64.6024 15.8415C64.5885 15.3786 64.6898 14.9201 64.8944 14.512C65.1001 14.1038 65.402 13.7604 65.7716 13.5162C66.5504 12.9648 67.6789 12.6735 69.1561 12.6425L70.982 12.5861V11.9084C70.982 10.9352 70.7972 10.201 70.4277 9.70612C70.0571 9.2111 69.4601 8.96275 68.6356 8.96097C67.667 8.98242 66.7193 9.25372 65.8709 9.75161L65.5441 8.9411C66.5176 8.43317 67.5855 8.16307 68.6693 8.15045C69.7233 8.15045 70.5101 8.44172 71.0317 9.02415C71.5532 9.60648 71.8144 10.5167 71.8144 11.7546V18.5576L71.1687 18.5586ZM67.6382 17.901C68.0803 17.9266 68.5233 17.8569 68.9395 17.6959C69.3568 17.535 69.7382 17.2862 70.0621 16.9642C70.6551 16.3396 70.9512 15.4727 70.9512 14.3632V13.3568L69.2743 13.4332C67.9243 13.5029 66.9647 13.7254 66.3915 14.1075C66.1103 14.2919 65.8819 14.5546 65.7309 14.8671C65.5789 15.1797 65.5103 15.5302 65.5312 15.8813C65.5163 16.1577 65.558 16.4342 65.6534 16.6918C65.7487 16.9493 65.8948 17.1817 66.0825 17.3728C66.5216 17.7496 67.0759 17.938 67.6382 17.901Z" fill="white"/>
<path d="M75.506 18.5586H74.6328V3.91608H75.506V18.5586Z" fill="white"/>
<path d="M86.3513 8.13048C86.9731 8.11438 87.59 8.25316 88.1523 8.53568C88.7126 8.85943 89.1815 9.33646 89.5113 9.9176H89.5639C89.5302 9.12706 89.5123 8.3519 89.5113 7.59235V3.91608H90.3775V18.5586H89.8043L89.5828 16.9974H89.5113C89.1775 17.5572 88.7106 18.0137 88.1593 18.3209C87.6069 18.6281 86.989 18.7755 86.3672 18.7479C85.042 18.7479 84.0297 18.3084 83.3284 17.4292C82.627 16.55 82.2773 15.27 82.2783 13.5892C82.2783 11.8187 82.625 10.4667 83.3194 9.53326C84.0217 8.59986 85.032 8.13226 86.3513 8.13048ZM86.3513 8.97755C85.3042 8.97755 84.5165 9.36954 83.989 10.1534C83.4615 10.9374 83.1972 12.0757 83.1972 13.5683C83.1972 16.4693 84.2542 17.9186 86.3672 17.9165C87.448 17.9165 88.2427 17.581 88.7513 16.9099C89.2589 16.239 89.5123 15.1317 89.5113 13.5882V13.4288C89.5113 11.8476 89.2629 10.7104 88.7662 10.0172C88.2705 9.32395 87.4639 8.97854 86.3513 8.97854V8.97755Z" fill="white"/>
<path d="M101.248 13.4295C101.248 15.0971 100.869 16.4004 100.11 17.3394C99.3525 18.2783 98.3044 18.7478 96.9663 18.7478C96.1815 18.7645 95.4087 18.5396 94.7411 18.1C94.0855 17.6509 93.5709 17.001 93.2669 16.2355C92.9112 15.3505 92.7374 14.3946 92.7563 13.4319C92.7563 11.7644 93.1358 10.4644 93.8937 9.53213C94.2841 9.06523 94.7669 8.69727 95.3073 8.45528C95.8487 8.21329 96.4339 8.10342 97.019 8.13362C98.3372 8.13362 99.3723 8.60538 100.123 9.54871C100.874 10.4921 101.249 11.7858 101.248 13.4295ZM93.6752 13.4295C93.6752 14.8347 93.9652 15.9309 94.5454 16.7182C94.8523 17.0898 95.2308 17.3875 95.655 17.5914C96.0792 17.7953 96.5391 17.9007 97.004 17.9007C97.469 17.9007 97.9289 17.7953 98.3521 17.5914C98.7763 17.3875 99.1548 17.0898 99.4627 16.7182C100.042 15.9309 100.332 14.8347 100.332 13.4295C100.332 12.0178 100.039 10.9227 99.4528 10.1444C99.1567 9.75703 98.7783 9.44967 98.3501 9.24712C97.921 9.04457 97.4531 8.95248 96.9852 8.9784C96.5193 8.95128 96.0544 9.04258 95.6292 9.24473C95.203 9.44689 94.8285 9.75405 94.5355 10.141C93.9623 10.9149 93.6752 12.0112 93.6752 13.4295Z" fill="white"/>
<path d="M113.7 18.5589L109.958 7.06784H109.886C109.986 8.7753 110.035 10.3753 110.035 11.8679V18.5579H108.119V4.80011H111.095L114.679 15.7454H114.732L118.422 4.80011H121.407V18.5589H119.375V11.7559C119.375 11.0716 119.392 10.1803 119.425 9.08186C119.457 7.98565 119.485 7.31798 119.509 7.08543H119.438L115.561 18.5556H113.7V18.5589Z" fill="white"/>
<path d="M131.514 18.5589H124.213V4.80011H131.514V6.70009H126.322V10.4471H131.187V12.3306H126.322V16.6489H131.514V18.5589Z" fill="white"/>
<path d="M133.709 18.5589V4.80011H135.818V18.5589H133.709Z" fill="white"/>
</svg>
