<svg width="108" height="18" viewBox="0 0 108 18" fill="none" xmlns="http://www.w3.org/2000/svg">
<path d="M16.056 0.246766L19.9171 1.53996C20.1273 1.61597 20.3101 1.76039 20.4395 1.95282C20.569 2.14525 20.6388 2.37612 20.6388 2.61279V15.6098C20.638 15.8565 20.5627 16.0964 20.4223 16.2929C20.2827 16.4894 20.0858 16.6318 19.863 16.6984L16.0018 17.7712C15.8441 17.8183 15.6786 17.8257 15.5178 17.7932C15.357 17.7606 15.2048 17.6888 15.0746 17.5834C14.9436 17.478 14.8377 17.3419 14.7647 17.1856C14.6918 17.0293 14.6533 16.8571 14.6533 16.6826V1.31701C14.6533 1.13721 14.6941 0.96008 14.771 0.800284C14.8479 0.64041 14.9601 0.502502 15.0973 0.397854C15.2338 0.293285 15.3923 0.224957 15.5594 0.198678C15.7265 0.172398 15.8967 0.188872 16.056 0.246766Z" fill="#FEC654"/>
<path d="M8.56531 1.98844L12.4288 3.28163C12.639 3.35773 12.8218 3.50207 12.9513 3.6945C13.0807 3.88701 13.1497 4.11779 13.1497 4.35447V14.2071C13.1497 14.4538 13.0736 14.6937 12.934 14.8902C12.7944 15.0867 12.5975 15.2291 12.3747 15.2957L8.51354 16.3685C8.35587 16.4156 8.19034 16.4231 8.02952 16.3905C7.86792 16.3579 7.71652 16.2861 7.5863 16.1807C7.45529 16.0753 7.3494 15.9392 7.27644 15.7829C7.20349 15.6266 7.16505 15.4545 7.16505 15.2799V3.06128C7.16427 2.88156 7.20427 2.70434 7.28115 2.54431C7.35803 2.38428 7.46941 2.24606 7.6067 2.14118C7.74319 2.03621 7.90166 1.96765 8.06875 1.94114C8.23506 1.91454 8.40528 1.93078 8.56531 1.98844Z" fill="#E9655F"/>
<path d="M1.49249 2.84374L5.35363 4.13702C5.56387 4.21303 5.74665 4.35745 5.87608 4.54988C6.00552 4.74231 6.07455 4.9731 6.07455 5.20985V13.0977C6.07455 13.3444 5.99846 13.5843 5.85882 13.7808C5.7184 13.9773 5.52229 14.1197 5.2995 14.1863L1.43836 15.2591C1.28068 15.3062 1.11437 15.3137 0.953551 15.2811C0.792735 15.2485 0.641343 15.1767 0.510337 15.0714C0.380116 14.9659 0.274203 14.8298 0.201248 14.6735C0.128293 14.5172 0.0898551 14.3451 0.0898551 14.1705V3.91666C0.0890706 3.7367 0.12908 3.55934 0.206742 3.39915C0.28362 3.23904 0.395021 3.10074 0.532302 2.99585C0.669584 2.89097 0.828043 2.82241 0.995135 2.79597C1.16223 2.76953 1.33246 2.78593 1.49249 2.84374Z" fill="#58C5C6"/>
<path d="M31.5748 6.86764C31.5748 7.91687 31.2398 8.7222 30.5706 9.28348C29.9015 9.84312 28.9531 10.1229 27.7254 10.1229H26.151V14.6111H25.4395V3.74609H27.9348C30.3612 3.74609 31.5748 4.78661 31.5748 6.86764ZM27.5512 9.4698C28.6981 9.4698 29.5297 9.2678 30.0388 8.8638C30.5487 8.45987 30.8068 7.80406 30.8068 6.8991C30.8068 6.06231 30.5652 5.44148 30.0811 5.03662C29.5987 4.6327 28.848 4.4307 27.8368 4.4307H26.1486V9.4698H27.5512Z" fill="#060E13"/>
<path d="M39.6567 10.5609C39.6567 11.8778 39.357 12.907 38.7585 13.6484C38.1599 14.3899 37.3316 14.7607 36.2757 14.7607C35.6559 14.7738 35.0456 14.5962 34.5185 14.2491C33.9999 13.8944 33.5944 13.3812 33.3543 12.7767C33.0735 12.0779 32.9354 11.323 32.9503 10.5628C32.9503 9.24601 33.25 8.21946 33.8485 7.48324C34.1568 7.11454 34.5389 6.82397 34.9656 6.63288C35.3924 6.44178 35.8544 6.35502 36.3172 6.37886C37.3582 6.37886 38.1749 6.75141 38.7679 7.49634C39.361 8.24134 39.6575 9.26287 39.6567 10.5609ZM33.6744 10.5609C33.6744 11.6706 33.9027 12.5362 34.3608 13.1579C34.604 13.4514 34.9028 13.6865 35.237 13.8475C35.572 14.0085 35.9352 14.0917 36.3023 14.0917C36.6695 14.0917 37.0327 14.0085 37.3676 13.8475C37.7026 13.6865 38.0007 13.4514 38.2439 13.1579C38.702 12.5362 38.9303 11.6706 38.9303 10.5609C38.9303 9.44613 38.6997 8.58133 38.2368 7.9667C38.0023 7.66084 37.7042 7.41813 37.3653 7.25817C37.0264 7.09822 36.6577 7.0255 36.2874 7.04597C35.9203 7.02456 35.5532 7.09665 35.2166 7.25629C34.8801 7.41593 34.5843 7.65849 34.3529 7.96404C33.9003 8.57521 33.6744 9.44087 33.6744 10.5609Z" fill="#060E13"/>
<path d="M44.5099 6.37612C44.8558 6.37823 45.201 6.41338 45.5415 6.481L45.4081 7.18663C45.0873 7.10206 44.7578 7.05978 44.4267 7.06072C44.1145 7.05688 43.8062 7.13477 43.5293 7.28751C43.2516 7.44032 43.0139 7.66327 42.8366 7.93689C42.406 8.58133 42.1879 9.35999 42.2169 10.1508V14.6102H41.5273V6.53348H42.1133L42.1824 7.98937H42.231C42.4624 7.49171 42.8052 7.06213 43.2281 6.73807C43.6132 6.48743 44.0588 6.36168 44.5099 6.37612Z" fill="#060E13"/>
<path d="M48.8566 14.1049C49.241 14.1104 49.6246 14.0708 50.0004 13.9868V14.5823C49.6262 14.7071 49.2363 14.7672 48.8441 14.7607C48.1749 14.7607 47.6807 14.5701 47.3622 14.1888C47.0445 13.8076 46.8853 13.2078 46.8853 12.3894V7.17194H45.7627V6.74174L46.8853 6.40599L47.2343 4.57764H47.5913V6.5319H49.816V7.17194H47.5913V12.2845C47.5583 12.7655 47.6658 13.2458 47.8988 13.659C48.011 13.8124 48.1577 13.9336 48.3248 14.0115C48.4918 14.0893 48.6746 14.1215 48.8566 14.1049Z" fill="#060E13"/>
<path d="M56.0096 14.6112L55.8346 13.3338H55.7781C55.4675 13.7887 55.0666 14.1658 54.6046 14.438C54.1598 14.6631 53.6718 14.7736 53.1792 14.7607C52.5493 14.8024 51.928 14.5846 51.4448 14.1522C51.2337 13.9349 51.069 13.6718 50.9623 13.3807C50.8556 13.0897 50.8085 12.7776 50.8242 12.4655C50.8133 12.1 50.8933 11.7379 51.0549 11.4157C51.2172 11.0933 51.4557 10.8221 51.7475 10.6293C52.3626 10.1938 53.2537 9.96384 54.4202 9.93937L55.8621 9.89481V9.35965C55.8621 8.59111 55.7162 8.01139 55.4243 7.62056C55.1317 7.22966 54.6603 7.03355 54.0092 7.03214C53.2443 7.04908 52.4959 7.26332 51.826 7.65649L51.5679 7.01645C52.3367 6.61535 53.18 6.40205 54.0358 6.39209C54.8682 6.39209 55.4895 6.62209 55.9013 7.08203C56.3131 7.54188 56.5195 8.26069 56.5195 9.23821V14.6104L56.0096 14.6112ZM53.2216 14.0919C53.5707 14.1121 53.9205 14.057 54.2492 13.9299C54.5787 13.8029 54.8799 13.6064 55.1357 13.3521C55.604 12.8589 55.8378 12.1743 55.8378 11.2981V10.5034L54.5136 10.5637C53.4475 10.6188 52.6897 10.7945 52.2371 11.0962C52.0151 11.2419 51.8346 11.4493 51.7154 11.6961C51.5954 11.9429 51.5412 12.2197 51.5577 12.497C51.5459 12.7152 51.5789 12.9336 51.6542 13.137C51.7295 13.3403 51.8448 13.5239 51.9931 13.6748C52.3398 13.9723 52.7776 14.1211 53.2216 14.0919Z" fill="#060E13"/>
<path d="M59.4356 14.6112H58.7461V3.04834H59.4356V14.6112Z" fill="#060E13"/>
<path d="M67.9995 6.37636C68.4906 6.36365 68.9777 6.47324 69.4217 6.69634C69.8642 6.952 70.2345 7.3287 70.4949 7.78761H70.5365C70.5098 7.16334 70.4957 6.55122 70.4949 5.95141V3.04834H71.179V14.6112H70.7263L70.5514 13.3783H70.4949C70.2313 13.8205 69.8626 14.1809 69.4273 14.4235C68.9911 14.6661 68.5031 14.7825 68.0121 14.7607C66.9656 14.7607 66.1662 14.4136 65.6124 13.7194C65.0586 13.0251 64.7824 12.0143 64.7832 10.687C64.7832 9.28885 65.057 8.22119 65.6053 7.4841C66.1599 6.74702 66.9578 6.37777 67.9995 6.37636ZM67.9995 7.04527C67.1727 7.04527 66.5506 7.35482 66.1341 7.97385C65.7175 8.59295 65.5088 9.49179 65.5088 10.6705C65.5088 12.9613 66.3435 14.1059 68.0121 14.1041C68.8656 14.1041 69.4931 13.8392 69.8948 13.3093C70.2956 12.7795 70.4957 11.905 70.4949 10.6862V10.5603C70.4949 9.31168 70.2988 8.4137 69.9066 7.8663C69.5151 7.31882 68.8781 7.04606 67.9995 7.04606V7.04527Z" fill="#060E13"/>
<path d="M79.7634 10.5609C79.7634 11.8778 79.4645 12.907 78.8652 13.6484C78.2666 14.3899 77.439 14.7607 76.3823 14.7607C75.7626 14.7738 75.1523 14.5962 74.6251 14.2491C74.1074 13.8944 73.701 13.3812 73.461 12.7767C73.1801 12.0779 73.0428 11.323 73.0577 10.5628C73.0577 9.24601 73.3574 8.21946 73.956 7.48324C74.2643 7.11454 74.6455 6.82397 75.0722 6.63288C75.4998 6.44178 75.9618 6.35502 76.4239 6.37886C77.4649 6.37886 78.2823 6.75141 78.8754 7.49634C79.4684 8.24134 79.7641 9.26287 79.7634 10.5609ZM73.7834 10.5609C73.7834 11.6706 74.0124 12.5362 74.4706 13.1579C74.713 13.4514 75.0118 13.6865 75.3468 13.8475C75.6818 14.0085 76.045 14.0917 76.4121 14.0917C76.7792 14.0917 77.1424 14.0085 77.4766 13.8475C77.8116 13.6865 78.1105 13.4514 78.3537 13.1579C78.811 12.5362 79.0401 11.6706 79.0401 10.5609C79.0401 9.44613 78.8087 8.58133 78.3458 7.9667C78.1121 7.66084 77.8132 7.41813 77.4751 7.25817C77.1362 7.09822 76.7667 7.0255 76.3972 7.04597C76.0293 7.02456 75.6622 7.09665 75.3264 7.25629C74.9899 7.41593 74.6941 7.65849 74.4627 7.96404C74.0101 8.57521 73.7834 9.44087 73.7834 10.5609Z" fill="#060E13"/>
<path d="M89.5966 14.6111L86.6415 5.53687H86.585C86.6635 6.88522 86.7027 8.14868 86.7027 9.32734V14.6103H85.1895V3.74609H87.5397L90.3693 12.3893H90.4117L93.3252 3.74609H95.6825V14.6111H94.0782V9.23893C94.0782 8.69859 94.0916 7.99469 94.1175 7.1273C94.1426 6.26164 94.1645 5.7344 94.1841 5.55076H94.1277L91.0659 14.6085H89.5966V14.6111Z" fill="#060E13"/>
<path d="M103.664 14.6111H97.8984V3.74609H103.664V5.24646H99.5638V8.20539H103.405V9.69274H99.5638V13.1028H103.664V14.6111Z" fill="#060E13"/>
<path d="M105.396 14.6111V3.74609H107.062V14.6111H105.396Z" fill="#060E13"/>
</svg>
